<svg width="800" height="800" viewBox="0 0 800 800" fill="none" xmlns="http://www.w3.org/2000/svg">
<mask id="path-1-inside-1_105_9" fill="white">
<path d="M612.692 187.307C626.051 173.949 647.867 173.849 659.794 188.5C694.185 230.743 717.869 280.883 728.563 334.645C741.489 399.628 734.855 466.986 709.5 528.199C684.144 589.412 641.206 641.732 586.116 678.542C531.026 715.353 466.257 735 400 735C333.743 735 268.974 715.353 213.884 678.542C158.793 641.732 115.856 589.412 90.5003 528.199C65.145 466.986 58.5109 399.628 71.4369 334.645C82.1309 280.883 105.815 230.743 140.206 188.5C152.134 173.849 173.949 173.949 187.308 187.307V187.307C200.666 200.666 200.463 222.209 188.923 237.168C163.899 269.607 146.59 307.509 138.537 347.992C128.251 399.704 133.53 453.306 153.707 502.018C173.885 550.73 208.053 592.365 251.893 621.657C295.733 650.95 347.274 666.585 400 666.585C452.726 666.585 504.267 650.95 548.107 621.658C591.947 592.365 626.115 550.73 646.293 502.018C666.47 453.306 671.749 399.704 661.463 347.992C653.41 307.509 636.102 269.607 611.077 237.168C599.537 222.209 599.334 200.666 612.692 187.307V187.307Z"/>
</mask>
<path d="M612.692 187.307C626.051 173.949 647.867 173.849 659.794 188.5C694.185 230.743 717.869 280.883 728.563 334.645C741.489 399.628 734.855 466.986 709.5 528.199C684.144 589.412 641.206 641.732 586.116 678.542C531.026 715.353 466.257 735 400 735C333.743 735 268.974 715.353 213.884 678.542C158.793 641.732 115.856 589.412 90.5003 528.199C65.145 466.986 58.5109 399.628 71.4369 334.645C82.1309 280.883 105.815 230.743 140.206 188.5C152.134 173.849 173.949 173.949 187.308 187.307V187.307C200.666 200.666 200.463 222.209 188.923 237.168C163.899 269.607 146.59 307.509 138.537 347.992C128.251 399.704 133.53 453.306 153.707 502.018C173.885 550.73 208.053 592.365 251.893 621.657C295.733 650.95 347.274 666.585 400 666.585C452.726 666.585 504.267 650.95 548.107 621.658C591.947 592.365 626.115 550.73 646.293 502.018C666.47 453.306 671.749 399.704 661.463 347.992C653.41 307.509 636.102 269.607 611.077 237.168C599.537 222.209 599.334 200.666 612.692 187.307V187.307Z" stroke="black" stroke-width="140" mask="url(#path-1-inside-1_105_9)"/>
<path d="M400 133L400 400" stroke="black" stroke-width="70" stroke-linecap="round"/>
<path d="M285 331L392.284 461.14C396.284 465.992 403.716 465.992 407.716 461.14L515 331" stroke="black" stroke-width="70" stroke-linecap="round"/>
</svg>
